<?xml version="1.0" encoding="UTF-8"?>
<svg id="Capa_2" data-name="Capa 2" xmlns="http://www.w3.org/2000/svg" xmlns:xlink="http://www.w3.org/1999/xlink" viewBox="0 0 1418.32 526.98">
  <defs>
    <style>
      .cls-1 {
        fill: url(#linear-gradient-2);
      }

      .cls-2 {
        fill: #555;
      }

      .cls-3 {
        fill: url(#linear-gradient-5);
      }

      .cls-4 {
        clip-path: url(#clippath);
      }

      .cls-5 {
        fill: none;
      }

      .cls-6 {
        fill: url(#linear-gradient-3);
      }

      .cls-7 {
        fill: url(#linear-gradient);
      }

      .cls-8 {
        fill: url(#linear-gradient-4);
      }
    </style>
    <clipPath id="clippath">
      <rect class="cls-5" width="1418.32" height="526.98"/>
    </clipPath>
    <linearGradient id="linear-gradient" x1="-57.21" y1="277.31" x2="1541.48" y2="277.31" gradientUnits="userSpaceOnUse">
      <stop offset="0" stop-color="#fffb90"/>
      <stop offset=".13" stop-color="#fbec7a"/>
      <stop offset=".24" stop-color="#f8dc65"/>
      <stop offset=".33" stop-color="#c8a443"/>
      <stop offset=".4" stop-color="#fae570"/>
      <stop offset=".49" stop-color="#996c22"/>
      <stop offset=".62" stop-color="#caaa4d"/>
      <stop offset=".69" stop-color="#fbe878"/>
      <stop offset=".73" stop-color="#fdf491"/>
      <stop offset=".77" stop-color="#ffa"/>
      <stop offset=".8" stop-color="#fdf491"/>
      <stop offset=".83" stop-color="#fbe878"/>
      <stop offset=".92" stop-color="#d0a549"/>
      <stop offset="1" stop-color="#a4631b"/>
    </linearGradient>
    <linearGradient id="linear-gradient-2" x1="-219.93" y1="321.83" x2="304.79" y2="321.83" xlink:href="#linear-gradient"/>
    <linearGradient id="linear-gradient-3" x1="-243.16" y1="173" x2="308.51" y2="173" xlink:href="#linear-gradient"/>
    <linearGradient id="linear-gradient-4" x1="-147.28" y1="147.96" x2="219.33" y2="147.96" xlink:href="#linear-gradient"/>
    <linearGradient id="linear-gradient-5" x1="-51.68" y1="79.22" x2="140.89" y2="79.22" xlink:href="#linear-gradient"/>
  </defs>
  <g id="Capa_1-2" data-name="Capa 1">
    <g class="cls-4">
      <g>
        <rect class="cls-7" x="-57.21" y="56.55" width="1598.69" height="441.51"/>
        <g>
          <path class="cls-2" d="m31.98,505.7c115.76,0,221.9-31.26,304.62-83.25,10.76-6.76,17.86-17.92,19.77-30.48,0-.06.02-.12.03-.17,24.9-162.8-42.49-228.7-59.57-242.53-1.89-1.53-1.88-4.41.04-5.91,17.17-13.41,87.84-67.63,136.06-90.3,2.02-.95,1.03-4-1.16-3.59-69.53,13.13-228.19,42.06-273.83,50.38-3.69.67-5.99-3.88-3.26-6.46l46.53-43.99c2.03-1.92,1.35-5.31-1.28-6.28-17.58-6.46-74.5-25.16-144.13-25.16s-149.94,15.44-173.44,20.37c-2.96.62-4.02,4.3-1.84,6.41l50.88,49.19c2.74,2.65.28,7.22-3.44,6.4-58.34-12.95-292.87-64.73-307.22-63.78-14.75.98,138.62,89.13,169.53,106.79,2.37,1.36,2.56,4.7.34,6.3-18.53,13.4-84.38,73.12-66.11,249.93.69,6.67,2.64,22.75,4.12,23.67,82.54,51.53,188.19,82.47,303.36,82.47Z"/>
          <path class="cls-1" d="m260.2,155.68l-216.04,124.61-219.01-124.61S-354.02,412.88,2.02,423.37l42.13,64.61,32.21-65.79c364.02-21.67,183.83-266.52,183.83-266.52Z"/>
          <path class="cls-2" d="m205.58,218.08c1.36,1.91,1.22,3.19,2.1,5.22,10.35,24.14-1.75,45.99-23.34,60.27-20.63,13.65-49.87,5.94-64.38-13.61-15.23,9.26,0,0-29.4,17.56,33.7,30.63,79.26,45.99,115.62,15.74,32.53-27.07,39.14-60.35,25.43-99.66l-26.03,14.47Z"/>
          <polygon class="cls-2" points="15.1 290.61 42.43 310.54 69.76 289.52 42.43 451.37 15.1 290.61"/>
          <polygon class="cls-6" points="-243.16 101.89 40.96 244.11 308.51 107.32 42.43 199.92 -243.16 101.89"/>
          <polygon class="cls-8" points="-147.28 118.37 41.52 177.54 219.33 118.37 42.5 148.17 -147.28 118.37"/>
          <path class="cls-3" d="m-51.68,57.91L4.35,113.94h78.9l57.63-54.48s-22.15-14.98-90.63-14.98-101.95,13.42-101.95,13.42Z"/>
        </g>
        <g>
          <path class="cls-2" d="m429.2,359.48c-9.52,0-15.22-3.74-17.1-11.22-1.76-6.79.01-14.94,5.33-24.42l50.7-90.36c5.34-9.52,12.69-17.65,22.05-24.42,10.32-7.5,20.22-11.26,29.71-11.26h197.38c9.51,0,15.21,3.75,17.1,11.26,1.79,6.79.01,14.93-5.33,24.42l-11.55,20.56h-51.8c3.73-6.62,5.34-10.97,4.82-13.06-.38-1.32-.93-1.98-1.67-1.98h-146.78c-.74,0-2.04.66-3.88,1.98-2.82,2.09-5.06,4.6-6.73,7.54l-33.83,60.28c-1.63,2.94-2.2,5.46-1.71,7.54.37,1.32.93,1.99,1.67,1.99h146.76c.75,0,2.04-.66,3.9-1.99,2.84-2.08,6.12-6.44,9.82-13.05h51.82l-11.53,20.56c-5.32,9.51-12.68,17.65-22.06,24.42-10.32,7.48-20.22,11.22-29.71,11.22h-197.37Z"/>
          <path class="cls-2" d="m780.9,299.23c-.74,0-2.05.67-3.94,2.02-2.82,2.03-5.06,4.55-6.73,7.54-1.66,2.94-2.24,5.46-1.71,7.54.37,1.32.92,1.99,1.67,1.99h204.19l-23.13,41.15h-229.49c-9.48,0-15.18-3.74-17.1-11.22-1.79-6.77-.01-14.91,5.33-24.42l50.7-90.36c5.32-9.49,12.66-17.63,22.06-24.42,10.32-7.5,20.23-11.26,29.75-11.26h229.49l-23.13,41.19h-204.19c-.74,0-2.04.66-3.9,1.98-2.83,2.09-5.08,4.6-6.71,7.54-1.7,2.99-2.29,5.5-1.76,7.54.37,1.35.93,2.03,1.67,2.03h204.19l-23.08,41.15h-204.19Z"/>
          <path class="cls-2" d="m1014.98,359.48c-9.52,0-15.22-3.74-17.1-11.22-1.76-6.79.01-14.94,5.33-24.42l50.7-90.36c5.34-9.52,12.69-17.65,22.05-24.42,10.32-7.5,20.22-11.26,29.71-11.26h197.38c9.51,0,15.21,3.75,17.1,11.26,1.79,6.79.01,14.93-5.33,24.42l-50.7,90.36c-5.32,9.51-12.68,17.65-22.06,24.42-10.32,7.48-20.22,11.22-29.71,11.22h-197.37Zm195.14-41.15c.75,0,2.04-.66,3.9-1.99,2.84-2.08,5.08-4.59,6.73-7.54l33.82-60.28c1.67-2.94,2.25-5.46,1.72-7.54-.38-1.32-.93-1.98-1.67-1.98h-147.24c-.74,0-2.04.66-3.9,1.98-2.8,2.09-5.04,4.6-6.71,7.54l-33.83,60.28c-1.63,2.94-2.21,5.46-1.71,7.54.37,1.32.92,1.99,1.67,1.99h147.22Z"/>
        </g>
      </g>
    </g>
  </g>
</svg>