<svg width="192" height="33" viewBox="0 0 192 33" fill="none" xmlns="http://www.w3.org/2000/svg">
<path d="M34.6394 6.14308L22.8415 25.3194L11.0435 6.14308H22.8415L19.0622 0H0L20.3048 33H25.3804L45.6853 0H26.6231L22.8415 6.14308H34.6394Z" fill="#E6006E"/>
<path d="M57.4973 0H51.1978V33H57.4973V0Z" fill="#5564FF"/>
<path d="M110.732 0H104.432V33H110.732V0Z" fill="#5564FF"/>
<path d="M65.3734 26.8546V32.9977H91.8306C95.3109 32.9977 98.1302 30.2462 98.1302 26.8546V19.5727C98.1302 16.1788 95.3086 13.4296 91.8306 13.4296H70.0986V7.68056L66.9477 6.14536H96.5559V0H70.0986C66.6183 0 63.7991 2.75152 63.7991 6.14308V13.4273C63.7991 16.8212 66.6207 19.5704 70.0986 19.5704H91.8306V25.3172L94.9816 26.8524L65.3734 26.8546Z" fill="#5564FF"/>
<path d="M145.067 0H123.637C119.991 0 117.033 2.75152 117.033 6.14308V26.8546C117.033 30.2485 119.991 32.9977 123.637 32.9977H145.067C148.548 32.9977 151.367 30.2462 151.367 26.8546V6.14308C151.367 2.75152 148.545 0 145.067 0ZM123.333 26.8546V7.68056L120.182 6.14536H145.065V25.3217L148.216 26.8569H123.333V26.8546Z" fill="#5564FF"/>
<path d="M185.7 0H168.663L163.969 3.43484V0H157.669V33H163.969V6.14308H185.7V32.9977H192V6.14308C192.002 2.75152 189.181 0 185.7 0Z" fill="#5564FF"/>
</svg>
