<?xml version="1.0" standalone="no"?>
<svg id="wave" style="transform:rotate(180deg); transition: 0.3s" viewBox="0 0 1440 210" version="1.1" xmlns="http://www.w3.org/2000/svg"><defs><linearGradient id="sw-gradient-0" x1="0" x2="0" y1="1" y2="0"><stop stop-color="rgba(206, 212, 218, 1)" offset="0%"></stop><stop stop-color="rgba(233, 236, 239, 1)" offset="100%"></stop></linearGradient></defs><path style="transform:translate(0, 0px); opacity:1" fill="url(#sw-gradient-0)" d="M0,168L1440,42L2880,84L4320,126L5760,189L7200,168L8640,189L10080,21L11520,21L12960,21L14400,0L15840,0L17280,42L18720,126L20160,21L21600,189L23040,189L24480,0L25920,0L27360,0L28800,189L30240,63L31680,42L33120,63L34560,168L34560,210L33120,210L31680,210L30240,210L28800,210L27360,210L25920,210L24480,210L23040,210L21600,210L20160,210L18720,210L17280,210L15840,210L14400,210L12960,210L11520,210L10080,210L8640,210L7200,210L5760,210L4320,210L2880,210L1440,210L0,210Z"></path></svg>